<svg xmlns="http://www.w3.org/2000/svg" width="24" height="22.9" viewBox="0 0 24 22.9">
  <path id="Green_star" data-name="Green star" d="M20.92,18.672,26.1,14.4a1.039,1.039,0,0,0-.606-1.843l-6.667-.4a1.046,1.046,0,0,1-.909-.657l-2.45-6.263a1.044,1.044,0,0,0-1.944,0l-2.45,6.237a1.046,1.046,0,0,1-.909.657l-6.692.4a1.039,1.039,0,0,0-.606,1.843l5.177,4.242a1.064,1.064,0,0,1,.354,1.061L6.7,26.173a1.04,1.04,0,0,0,1.566,1.136L13.9,23.7a.99.99,0,0,1,1.111,0l5.657,3.611a1.04,1.04,0,0,0,1.566-1.136l-1.692-6.465A1.037,1.037,0,0,1,20.92,18.672Z" transform="translate(-2.48 -4.574)" fill="#3ab649"/>
</svg>
