<svg xmlns="http://www.w3.org/2000/svg" width="20" height="23" viewBox="0 0 20 23"><g fill="none" fill-rule="evenodd"><path fill="#FFF" d="M-974-577H466V818H-974z"/><g fill="#919191"><path d="M19.086 6.568a.538.538 0 0 0-.55.525v4.11c0 4.726-3.16 8.904-7.86 10.397l-.848.27-.847-.27c-4.701-1.493-7.86-5.671-7.86-10.397V3.478a14.315 14.315 0 0 0 8.707-2.055 14.366 14.366 0 0 0 9.29 1.995l.039-.004a.53.53 0 0 0 .474-.59.546.546 0 0 0-.617-.452l-.038.005A13.212 13.212 0 0 1 10.139.36a.572.572 0 0 0-.621 0A13.22 13.22 0 0 1 .68 2.377l-.039-.005H.607C.595 2.37.583 2.367.571 2.367l-.02.002c-.019 0-.036.003-.054.005a.581.581 0 0 0-.057.01c-.015.003-.029.008-.043.013a.574.574 0 0 0-.06.021l-.035.019a.544.544 0 0 0-.055.033c-.011.007-.021.016-.031.024a.536.536 0 0 0-.047.042.553.553 0 0 0-.064.08c-.008.011-.015.025-.022.038a.56.56 0 0 0-.025.052c-.006.014-.01.029-.014.044a.485.485 0 0 0-.014.056l-.005.018v.033c-.001.011-.004.023-.004.035v8.31c0 5.179 3.461 9.758 8.613 11.394l1.02.324a.574.574 0 0 0 .349 0l1.021-.324c5.151-1.637 8.613-6.215 8.613-11.394v-4.11a.54.54 0 0 0-.551-.525z"/><path fill-rule="nonzero" d="M12.72 9.298c0-1.52-1.297-2.758-2.892-2.758S6.935 7.777 6.935 9.298c0 .9.457 1.733 1.214 2.247l-.287 3.495a.51.51 0 0 0 .144.398c.105.107.25.168.405.168h2.835c.153 0 .3-.06.404-.168a.51.51 0 0 0 .144-.398l-.287-3.495a2.72 2.72 0 0 0 1.214-2.247zm-2.048 1.508a.52.52 0 0 0-.289.504l.267 3.246H9.006l.267-3.246a.52.52 0 0 0-.29-.504 1.7 1.7 0 0 1-.947-1.508c0-.942.804-1.708 1.792-1.708s1.792.766 1.792 1.708a1.7 1.7 0 0 1-.948 1.508z"/></g></g></svg>